HIERARCHY
ROOT Hips
{
	OFFSET 0.000000 0.000000 0.000000 
	CHANNELS 6 Xposition Yposition Zposition Zrotation Yrotation Xrotation
	JOINT LeftUpLeg
	{
		OFFSET 1.363060 -1.794630 0.839290 
		CHANNELS 3 Zrotation Yrotation Xrotation
		JOINT LeftLeg
		{
			OFFSET 2.448110 -6.726130 0.000000 
			CHANNELS 3 Zrotation Yrotation Xrotation
			JOINT LeftFoot
			{
				OFFSET 2.562200 -7.039590 0.000000 
				CHANNELS 3 Zrotation Yrotation Xrotation
				JOINT LeftToeBase
				{
					OFFSET 0.157640 -0.433110 2.322550 
					CHANNELS 3 Zrotation Yrotation Xrotation
					End Site
					{
						OFFSET 0.000000 0.000000 0.000000 
					}
				}
			}
		}
	}
	JOINT RightUpLeg
	{
		OFFSET -1.305520 -1.794630 0.839290 
		CHANNELS 3 Zrotation Yrotation Xrotation
		JOINT RightLeg
		{
			OFFSET -2.542530 -6.985550 0.000000 
			CHANNELS 3 Zrotation Yrotation Xrotation
			JOINT RightFoot
			{
				OFFSET -2.568260 -7.056230 0.000000 
				CHANNELS 3 Zrotation Yrotation Xrotation
				JOINT RightToeBase
				{
					OFFSET -0.164730 -0.452590 2.363150 
					CHANNELS 3 Zrotation Yrotation Xrotation
					End Site
					{
						OFFSET 0.000000 0.000000 0.000000 
					}
				}
			}
		}
	}
	JOINT Spine
	{
		OFFSET 0.028270 2.035590 -0.193380 
		CHANNELS 3 Zrotation Yrotation Xrotation
		JOINT Spine1
		{
			OFFSET 0.056720 2.048850 -0.042750 
			CHANNELS 3 Zrotation Yrotation Xrotation
			JOINT Neck1
			{
				OFFSET -0.054170 1.746240 0.172020 
				CHANNELS 3 Zrotation Yrotation Xrotation
				JOINT Head
				{
					OFFSET 0.104070 1.761360 -0.123970 
					CHANNELS 3 Zrotation Yrotation Xrotation
					End Site
					{
						OFFSET 0.000000 0.000000 0.000000 
					}
				}
			}
			JOINT LeftArm
			{
				OFFSET 3.362410 1.200890 -0.311210 
				CHANNELS 3 Zrotation Yrotation Xrotation
				JOINT LeftForeArm
				{
					OFFSET 4.983000 -0.000000 -0.000000 
					CHANNELS 3 Zrotation Yrotation Xrotation
					JOINT LeftHand
					{
						OFFSET 3.483560 -0.000000 -0.000000 
						CHANNELS 3 Zrotation Yrotation Xrotation
						JOINT LeftHandIndex1
						{
							OFFSET 0.715260 -0.000000 -0.000000 
							CHANNELS 3 Zrotation Yrotation Xrotation
							End Site
							{
								OFFSET 0.000000 0.000000 0.000000 
							}
						}
					}
				}
			}
			JOINT RightArm
			{
				OFFSET -3.136600 1.374050 -0.404650 
				CHANNELS 3 Zrotation Yrotation Xrotation
				JOINT RightForeArm
				{
					OFFSET -5.241900 -0.000000 -0.000000 
					CHANNELS 3 Zrotation Yrotation Xrotation
					JOINT RightHand
					{
						OFFSET -3.444170 -0.000000 -0.000000 
						CHANNELS 3 Zrotation Yrotation Xrotation
						JOINT RightHandIndex1
						{
							OFFSET -0.622530 -0.000000 -0.000000 
							CHANNELS 3 Zrotation Yrotation Xrotation
							End Site
							{
								OFFSET 0.000000 0.000000 0.000000 
							}
						}
					}
				}
			}
		}
	}
}
MOTION
Frames: 10
Frame Time: 0.041667
-13.462356 17.406361 33.813902 179.589063 0.391537 -172.554545 -20.531461 -16.693212 -36.283787 6.495469 18.495408 51.967750 -0.085019 20.394166 7.392777 0.177500 -2.713900 -7.483100 38.937017 1.152436 9.090802 -1.624449 -8.473480 28.625872 -0.671952 -7.775776 -1.764862 -1.915600 8.688000 -24.824000 -0.373567 5.546981 -3.569270 -1.940401 2.878568 8.359759 5.835619 -8.223114 12.543148 -1.366300 -3.108500 24.436100 -78.602857 33.556871 53.249279 109.296806 -60.036244 -71.607033 1.393681 -0.316445 19.691450 -7.125000 0.000000 0.000000 85.303257 -6.596606 48.390769 -106.217183 57.268238 -63.165343 -0.024646 -1.891385 8.552140 7.125000 0.000000 0.000000 
-13.448634 17.516454 33.443626 179.325135 0.075962 -172.442029 -20.868584 -17.037255 -35.586955 5.127166 17.357566 47.132012 0.148120 19.221778 8.037790 0.197300 -2.860100 -7.889600 38.629417 0.380196 10.488472 -1.379467 -7.885455 27.126227 -0.711594 -8.512331 1.845709 -1.724600 8.267200 -23.528600 -0.467805 5.773921 -3.532336 -1.992538 2.991366 8.389368 6.135024 -8.838733 12.479083 -1.124500 -3.353200 23.551500 -77.905717 33.941959 53.332715 109.499557 -60.042184 -71.776171 1.426822 -0.410179 19.765933 -7.125000 0.000000 0.000000 85.230119 -7.240108 48.321257 -106.584715 57.213795 -63.497167 -0.065198 -1.848322 9.372530 7.125000 0.000000 0.000000 
-13.440550 17.616336 33.066224 178.921657 -0.281668 -172.262543 -21.352562 -17.535021 -34.945950 3.997594 16.251081 42.824799 0.393177 17.861017 8.835660 0.212200 -2.965800 -8.183500 38.150508 -0.188759 11.535091 -1.256507 -7.511575 26.271421 -0.805545 -9.254988 5.007834 -1.488100 7.706700 -21.826800 -0.619239 5.947881 -3.544813 -2.375346 3.103543 8.516208 6.265389 -9.552838 12.580517 -1.142300 -3.542200 23.628600 -76.801642 34.302338 54.139131 110.386008 -59.881875 -72.620895 1.416149 -0.365658 19.376126 -7.125000 0.000000 0.000000 85.390712 -7.829930 48.199727 -106.673754 57.225766 -63.501893 -0.099676 -1.849485 9.528003 7.125000 0.000000 0.000000 
-13.433848 17.716643 32.689034 178.729880 -0.509014 -172.080517 -21.690595 -17.682004 -34.094609 2.968834 15.013629 38.478906 0.662883 16.362213 10.004897 0.242000 -3.165500 -8.740000 37.859011 -0.798496 12.443664 -1.149731 -7.215518 25.599694 -0.947235 -10.178495 7.754308 -1.098300 6.659500 -18.710300 -0.666321 6.090688 -3.546159 -2.311078 3.155783 8.723761 6.253702 -9.964346 12.725790 -1.246900 -3.657900 23.771700 -76.350124 34.429508 54.785064 111.092184 -59.763607 -73.253935 1.401350 -0.305831 18.898181 -7.125000 0.000000 0.000000 85.195995 -8.580277 47.930966 -106.292542 57.368380 -63.094154 -0.090432 -1.833479 9.206719 7.125000 0.000000 0.000000 
-13.428742 17.791847 32.316950 178.522272 -0.771829 -171.879076 -22.020648 -17.917082 -33.298306 2.095691 13.772737 34.369251 0.876192 15.081587 10.888830 0.280900 -3.409000 -9.419500 37.596084 -1.252898 13.028374 -1.132114 -7.117424 25.492770 -1.121275 -11.123126 10.303272 -0.828800 5.808200 -16.229000 -0.740055 6.216155 -3.557890 -2.410121 3.215884 8.883981 6.288847 -10.407304 12.860322 -1.314300 -3.770800 23.935200 -75.736763 34.616910 55.359742 111.796641 -59.637503 -73.901749 1.392855 -0.272301 18.468124 -7.125000 0.000000 0.000000 85.145006 -9.282147 47.719770 -105.954043 57.500386 -62.695053 -0.096283 -1.822523 9.186150 7.125000 0.000000 0.000000 
-13.425658 17.855350 31.946036 178.391338 -1.006090 -171.666174 -22.268084 -18.116211 -32.544726 1.408502 12.607562 30.711053 1.050354 14.035495 11.662441 0.332100 -3.703400 -10.243600 37.429698 -1.579599 13.293266 -1.193655 -7.212943 25.931960 -1.308756 -12.107703 12.453644 -0.599100 4.955000 -13.780200 -0.791119 6.287055 -3.575737 -2.473751 3.246221 9.061503 6.287966 -10.728022 13.017442 -1.399200 -3.839200 24.232800 -75.298538 34.748748 55.864096 112.514841 -59.504030 -74.560063 1.381047 -0.231898 17.980337 -7.125000 0.000000 0.000000 85.047303 -9.970398 47.495639 -105.328574 57.711113 -62.002033 -0.094508 -1.816702 9.072530 7.125000 0.000000 0.000000 
-13.424594 17.906408 31.576931 178.355113 -1.207395 -171.469115 -22.438929 -18.239737 -31.790585 0.876390 11.530474 27.477914 1.190493 13.285736 12.336646 0.385500 -3.987200 -11.040700 37.380139 -1.785875 13.274217 -1.327565 -7.484211 26.877160 -1.497501 -13.147070 14.219992 -0.418700 4.153400 -11.508700 -0.817964 6.302671 -3.594846 -2.509172 3.249128 9.238243 6.275410 -10.924839 13.172775 -1.470800 -3.871400 24.562700 -75.051702 34.818060 56.234688 113.175067 -59.379115 -75.162224 1.369787 -0.196586 17.505816 -7.125000 0.000000 0.000000 84.914570 -10.642744 47.247649 -104.394212 58.006874 -60.995400 -0.088116 -1.816075 8.985796 7.125000 0.000000 0.000000 
-13.425445 17.944382 31.209314 178.415838 -1.364837 -171.312465 -22.522161 -18.285263 -31.112549 0.504681 10.642261 24.901186 1.286013 12.874278 12.804073 0.454300 -4.323800 -11.989400 37.446534 -1.878869 13.046932 -1.520642 -7.894049 28.238708 -1.676011 -14.295081 15.603435 -0.291100 3.469700 -9.589400 -0.822188 6.275275 -3.603788 -2.516851 3.230136 9.440987 6.264027 -11.024742 13.314892 -1.511500 -3.884400 24.855600 -74.981575 34.794319 56.475115 113.769045 -59.267206 -75.699063 1.360838 -0.168492 17.085253 -7.125000 0.000000 0.000000 84.763321 -11.270904 46.916602 -103.124242 58.397445 -59.656505 -0.081662 -1.816989 9.012379 7.125000 0.000000 0.000000 
-13.427679 17.967997 30.843932 178.560096 -1.488436 -171.224379 -22.553266 -18.225077 -30.533369 0.268615 9.987783 23.059550 1.348490 12.754522 13.138871 0.551100 -4.755700 -13.213100 37.607515 -1.873121 12.653744 -1.771602 -8.422026 29.973636 -1.819724 -15.534341 16.502658 -0.216300 2.994200 -8.262500 -0.809069 6.217534 -3.603628 -2.528541 3.199879 9.641330 6.250749 -11.039833 13.430565 -1.543500 -3.871800 25.067200 -75.032115 34.666105 56.620240 114.262429 -59.172179 -76.141351 1.355976 -0.151380 16.754088 -7.125000 0.000000 0.000000 84.646094 -11.892910 46.455203 -101.552770 58.868403 -58.039205 -0.074637 -1.820339 9.128774 7.125000 0.000000 0.000000 
-13.431083 17.976932 30.480996 178.761919 -1.580367 -171.223356 -22.583942 -18.028832 -30.032993 0.139255 9.575447 21.948236 1.396796 12.873312 13.483417 0.654700 -5.175400 -14.409500 37.820613 -1.795251 12.122591 -2.086376 -9.052198 32.055274 -1.916207 -16.841455 16.954753 -0.151200 2.505900 -6.906100 -0.786373 6.144607 -3.591902 -2.548528 3.164939 9.859029 6.227997 -11.019640 13.514935 -1.573600 -3.850600 25.247900 -75.151638 34.397743 56.705509 114.611598 -59.098990 -76.454036 1.358965 -0.142400 16.531693 -7.125000 0.000000 0.000000 84.596735 -12.523474 45.822545 -99.727235 59.400664 -56.213263 -0.063972 -1.825138 9.272876 7.125000 0.000000 0.000000 
